<svg width="28" height="28" viewBox="0 0 28 28" fill="none" xmlns="http://www.w3.org/2000/svg">
<path d="M13.7295 0C21.3121 0 27.459 6.1469 27.459 13.7295C27.459 21.3121 21.3121 27.459 13.7295 27.459C6.1469 27.459 0 21.3121 0 13.7295C0 6.1469 6.1469 0 13.7295 0ZM13.7295 1.50488C13.3185 1.50488 12.9123 1.52581 12.5117 1.56543C12.6377 1.66023 12.7207 1.80969 12.7207 1.97949C12.7205 2.26616 12.4878 2.49886 12.2012 2.49902C11.9144 2.49902 11.6818 2.26626 11.6816 1.97949C11.6816 1.85749 11.7245 1.74588 11.7949 1.65723C10.964 1.78935 10.1617 2.00719 9.39551 2.29785C9.58898 2.37345 9.72656 2.561 9.72656 2.78125C9.72656 3.06809 9.49384 3.30065 9.20703 3.30078C8.92011 3.30078 8.68751 3.06817 8.6875 2.78125C8.6875 2.7073 8.70262 2.63692 8.73047 2.57324C7.96796 2.91546 7.24717 3.33305 6.57715 3.81738C6.83822 3.84485 7.04199 4.06368 7.04199 4.33203C7.0419 4.61885 6.80929 4.85152 6.52246 4.85156C6.23559 4.85156 6.00303 4.61888 6.00293 4.33203C6.00293 4.30443 6.0066 4.27741 6.01074 4.25098C5.36587 4.77676 4.77571 5.36679 4.25 6.01172C4.27646 6.00756 4.30342 6.00391 4.33105 6.00391C4.61785 6.00391 4.85037 6.2367 4.85059 6.52344C4.85059 6.81037 4.61798 7.04297 4.33105 7.04297C4.06256 7.04294 3.84364 6.83942 3.81641 6.57812C3.33242 7.24784 2.91527 7.96838 2.57324 8.73047C2.63685 8.7027 2.70741 8.6875 2.78125 8.6875C3.06801 8.68751 3.30052 8.92033 3.30078 9.20703C3.30078 9.49396 3.06817 9.72656 2.78125 9.72656C2.56076 9.72656 2.37328 9.58932 2.29785 9.39551C2.00708 10.162 1.78933 10.9646 1.65723 11.7959C1.74577 11.7258 1.85683 11.6826 1.97852 11.6826C2.26534 11.6827 2.49795 11.9153 2.49805 12.2021C2.49805 12.489 2.2654 12.7216 1.97852 12.7217C1.8088 12.7217 1.65926 12.6395 1.56445 12.5137C1.52496 12.9136 1.50488 13.3192 1.50488 13.7295C1.50488 14.1535 1.52622 14.5725 1.56836 14.9854C1.66338 14.8625 1.8112 14.7822 1.97852 14.7822C2.26529 14.7823 2.49787 15.015 2.49805 15.3018C2.49805 15.5887 2.2654 15.8212 1.97852 15.8213C1.86073 15.8213 1.75316 15.7809 1.66602 15.7148C1.80006 16.5355 2.01777 17.3278 2.30664 18.085C2.38759 17.9033 2.56956 17.7764 2.78125 17.7764C3.06808 17.7764 3.30063 18.0091 3.30078 18.2959C3.30078 18.5828 3.06817 18.8154 2.78125 18.8154C2.71624 18.8154 2.65502 18.8011 2.59766 18.7793C2.93619 19.5243 3.34566 20.2297 3.82031 20.8857C3.86489 20.6441 4.07655 20.461 4.33105 20.4609C4.61795 20.4609 4.85053 20.6936 4.85059 20.9805C4.85059 21.2674 4.61798 21.5 4.33105 21.5C4.3165 21.5 4.30234 21.4963 4.28809 21.4951C4.80254 22.1199 5.37886 22.6913 6.00586 23.2031C6.00524 23.1927 6.00293 23.1824 6.00293 23.1719C6.00293 22.8849 6.23553 22.6523 6.52246 22.6523C6.80935 22.6524 7.04199 22.885 7.04199 23.1719C7.04197 23.4215 6.86557 23.6287 6.63086 23.6787C7.28083 24.1433 7.97773 24.5452 8.71387 24.877C8.69836 24.8277 8.6875 24.7761 8.6875 24.7217C8.68752 24.4348 8.92011 24.2021 9.20703 24.2021C9.49383 24.2023 9.72654 24.4349 9.72656 24.7217C9.72656 24.922 9.61141 25.093 9.44531 25.1797C10.1853 25.4567 10.9587 25.6652 11.7588 25.7949C11.7104 25.716 11.6816 25.6238 11.6816 25.5244C11.6817 25.2375 11.9143 25.0049 12.2012 25.0049C12.4879 25.005 12.7206 25.2376 12.7207 25.5244C12.7207 25.6713 12.6585 25.803 12.5605 25.8975C12.9453 25.934 13.3352 25.9541 13.7295 25.9541C14.1369 25.9541 14.5394 25.9325 14.9365 25.8936C14.8411 25.7994 14.7812 25.6691 14.7812 25.5244C14.7813 25.2375 15.0139 25.0049 15.3008 25.0049C15.5876 25.005 15.8202 25.2376 15.8203 25.5244C15.8203 25.6207 15.7918 25.7098 15.7461 25.7871C16.5384 25.6556 17.3041 25.4461 18.0371 25.1699C17.8814 25.0802 17.7754 24.9143 17.7754 24.7217C17.7754 24.4348 18.008 24.2021 18.2949 24.2021C18.5817 24.2023 18.8144 24.4348 18.8145 24.7217C18.8145 24.7679 18.8053 24.8119 18.7939 24.8545C19.5165 24.525 20.2009 24.1278 20.8398 23.6699C20.6209 23.6088 20.46 23.4103 20.46 23.1719C20.46 22.8849 20.6926 22.6523 20.9795 22.6523C21.2646 22.6525 21.4954 22.8824 21.498 23.167C22.1063 22.6657 22.6657 22.1073 23.167 21.499C22.8823 21.4964 22.6523 21.2658 22.6523 20.9805C22.6524 20.6936 22.885 20.4609 23.1719 20.4609C23.41 20.461 23.6076 20.6222 23.6689 20.8408C24.1267 20.2021 24.524 19.5182 24.8535 18.7959C24.8112 18.807 24.7675 18.8154 24.7217 18.8154C24.4348 18.8154 24.2021 18.5828 24.2021 18.2959C24.2023 18.0091 24.4349 17.7764 24.7217 17.7764C24.9142 17.7764 25.0802 17.8825 25.1699 18.0381C25.4462 17.3048 25.6555 16.5387 25.7871 15.7461C25.7095 15.7924 25.6203 15.8212 25.5234 15.8213C25.2365 15.8213 25.0039 15.5887 25.0039 15.3018C25.0041 15.015 25.2366 14.7822 25.5234 14.7822C25.6685 14.7823 25.7994 14.8425 25.8936 14.9385C25.9326 14.5407 25.9541 14.1375 25.9541 13.7295C25.9541 13.3352 25.934 12.9453 25.8975 12.5605C25.803 12.6593 25.6709 12.7216 25.5234 12.7217C25.2365 12.7217 25.0039 12.4891 25.0039 12.2021C25.004 11.9153 25.2366 11.6826 25.5234 11.6826C25.6234 11.6827 25.7157 11.7128 25.7949 11.7617C25.6653 10.9609 25.4569 10.1869 25.1797 9.44629C25.093 9.61228 24.9219 9.72656 24.7217 9.72656C24.4348 9.72654 24.2021 9.49395 24.2021 9.20703C24.2024 8.92034 24.4349 8.68752 24.7217 8.6875C24.776 8.6875 24.8277 8.69841 24.877 8.71387C24.5453 7.97798 24.1431 7.28162 23.6787 6.63184C23.6289 6.86678 23.4217 7.04295 23.1719 7.04297C22.8849 7.04297 22.6523 6.81037 22.6523 6.52344C22.6526 6.2367 22.8851 6.00391 23.1719 6.00391C23.1827 6.00391 23.1934 6.00618 23.2041 6.00684C22.6918 5.37907 22.1196 4.80208 21.4941 4.28711C21.4954 4.30193 21.499 4.31688 21.499 4.33203C21.4989 4.61875 21.2662 4.85136 20.9795 4.85156C20.6926 4.85156 20.4601 4.61888 20.46 4.33203C20.46 4.07668 20.6439 3.86493 20.8867 3.82129C20.23 3.34605 19.5242 2.9355 18.7783 2.59668C18.8003 2.65423 18.8145 2.71598 18.8145 2.78125C18.8144 3.0681 18.5817 3.30066 18.2949 3.30078C18.008 3.30078 17.7754 3.06817 17.7754 2.78125C17.7754 2.5694 17.9021 2.3875 18.084 2.30664C17.3265 2.01769 16.534 1.79901 15.7129 1.66504C15.7796 1.7524 15.8203 1.86111 15.8203 1.97949C15.8201 2.26621 15.5875 2.49894 15.3008 2.49902C15.014 2.49902 14.7814 2.26626 14.7812 1.97949C14.7812 1.81188 14.8612 1.66336 14.9844 1.56836C14.5718 1.52629 14.1532 1.50488 13.7295 1.50488ZM14.1963 9.02344L13.8984 11.3848C14.0083 11.3915 14.1164 11.4026 14.2217 11.4238L14.5459 9.06934L16.8252 2.28223L15.4062 9.2998L14.5078 11.5029C14.6102 11.5374 14.7091 11.5785 14.8047 11.626L15.7285 9.43359L19.6846 3.4707L16.5 9.87891L15.0625 11.7734C15.1531 11.8336 15.2381 11.901 15.3193 11.9727L16.7803 10.0928L22.1475 5.35449V5.35547L17.4102 10.7227L15.5283 12.1816C15.6002 12.263 15.6682 12.3478 15.7285 12.4385L17.624 11.002L24.0312 7.81641L18.0693 11.7734L15.875 12.6963C15.923 12.7926 15.9653 12.8919 16 12.9951L18.2031 12.0977L25.2207 10.6777L18.4346 12.957L16.0781 13.2812C16.0992 13.386 16.1104 13.4933 16.1172 13.6025L18.4785 13.3057L25.624 13.751L18.4785 14.1963L16.1172 13.8984C16.1105 14.0083 16.0993 14.1163 16.0781 14.2217L18.4346 14.5459L25.2207 16.8252L18.2031 15.4062L16 14.5078C15.9653 14.611 15.9229 14.7103 15.875 14.8066L18.0674 15.7305L24.0332 19.6885L17.6221 16.501L15.7285 15.0645C15.6684 15.1548 15.6008 15.2392 15.5293 15.3203L17.4102 16.7803L22.1475 22.1475V22.1484L16.7803 17.4102L15.3203 15.5303C15.2388 15.6023 15.1535 15.67 15.0625 15.7305L16.5 17.625L19.6865 24.0361L15.7285 18.0703L14.8047 15.877C14.7091 15.9245 14.6102 15.9655 14.5078 16L15.4062 18.2031L16.8252 25.2207L14.5459 18.4346L14.2217 16.0791C14.1163 16.1003 14.0084 16.1124 13.8984 16.1191L14.1963 18.4805L13.751 25.626L13.3057 18.4805L13.6025 16.1191C13.4929 16.1124 13.3854 16.1002 13.2803 16.0791L12.957 18.4346L10.6777 25.2207L12.0967 18.2031L12.9932 16.001C12.89 15.9662 12.7906 15.924 12.6943 15.876L11.7725 18.0693L7.81543 24.0312L11.001 17.624L12.4365 15.7295C12.3464 15.6695 12.2615 15.6027 12.1807 15.5312L10.7217 17.4111L5.35449 22.1494V22.1484L10.0918 16.7812L11.9707 15.3213C11.899 15.2401 11.8316 15.155 11.7715 15.0645L9.87793 16.501L3.4668 19.6885L9.43262 15.7305L11.625 14.8066C11.5771 14.7103 11.5346 14.611 11.5 14.5078L9.29785 15.4062L2.28125 16.8252L9.06738 14.5459L11.4219 14.2217C11.4008 14.1164 11.3895 14.0083 11.3828 13.8984L9.02246 14.1963L1.87695 13.751L9.02246 13.3057L11.3838 13.6025C11.3906 13.4931 11.4007 13.3852 11.4219 13.2803L9.06738 12.957L2.28125 10.6777L9.29785 12.0977L11.501 12.9951C11.5356 12.8921 11.5771 12.7925 11.625 12.6963L9.43262 11.7734L3.4668 7.81543L9.87793 11.002L11.7725 12.4385C11.8327 12.348 11.9 12.2628 11.9717 12.1816L10.0918 10.7227L5.35449 5.35547V5.35449L10.7217 10.0928L12.1807 11.9727C12.2619 11.901 12.347 11.8336 12.4375 11.7734L11.001 9.87891L7.81543 3.4707L11.7725 9.43359L12.6953 11.627C12.7916 11.579 12.891 11.5366 12.9941 11.502L12.0967 9.2998L10.6777 2.28223L12.957 9.06934L13.2803 11.4238C13.3853 11.4027 13.493 11.3915 13.6025 11.3848L13.3057 9.02344L13.751 1.87891L14.1963 9.02344Z" fill="url(#paint0_linear_5895_22704)"/>
<defs>
<linearGradient id="paint0_linear_5895_22704" x1="13.7295" y1="0" x2="13.7295" y2="27.459" gradientUnits="userSpaceOnUse">
<stop stop-color="#FF6A00"/>
<stop offset="0.533701" stop-color="white"/>
<stop offset="1" stop-color="#22A311"/>
</linearGradient>
</defs>
</svg>
