<svg width="162" height="23" viewBox="0 0 162 23" fill="none" xmlns="http://www.w3.org/2000/svg">
<path d="M22.3728 6.94293L9.53373 19.782C8.95355 20.3622 9.36182 21.3614 10.1891 21.3614H35.6094C36.4259 21.3614 36.8449 20.3729 36.2648 19.7927L23.6836 6.95367C23.329 6.58838 22.7381 6.58838 22.3728 6.94293Z" fill="#D3F702"/>
<path d="M12.0511 13.3071H0.784675C0.0823031 13.3071 -0.268883 12.4434 0.243659 11.9593L12.0891 0.522033C12.4308 0.18983 12.8864 0 13.3704 0H24.5989C25.2633 0 25.5955 0.806779 25.1209 1.27186L13.6931 12.6237C13.2565 13.0603 12.6681 13.3071 12.0511 13.3071Z" fill="#D3F702"/>
<path d="M45.6523 22.0649V0.791016H48.3187V19.6822L47.3826 19.2567L62.7565 0.791016H65.7065L47.9783 22.0649H45.6523ZM55.7503 11.0876L57.5373 9.01691L66.0469 22.0649H62.9551L55.7503 11.0876Z" fill="white"/>
<path d="M78.137 6.76871H80.4902V22.0649H78.137V19.2704C77.7546 20.3588 76.1367 22.359 72.8127 22.359C69.7829 22.359 67.312 20.7118 67.312 16.2111V6.76871H69.6653V15.7111C69.6653 18.6232 70.9007 20.3588 73.6364 20.3588C76.3426 20.3588 78.137 18.6232 78.137 15.7111V6.76871Z" fill="white"/>
<path d="M90.535 6.65104C90.9174 6.65104 91.3292 6.68046 91.6822 6.79812V8.79839C91.2998 8.73956 90.9468 8.71014 90.5644 8.71014C87.4758 8.71014 85.652 10.7398 85.652 14.005V22.0649H83.2987V6.76871H85.652V10.1809H85.7108C86.1227 8.59248 87.564 6.65104 90.535 6.65104Z" fill="white"/>
<path d="M93.4541 22.0649V1.47388H95.8073V22.0649H93.4541Z" fill="white"/>
<path d="M107.553 22.359C101.817 22.359 98.0521 18.5056 98.0521 11.7694C98.0521 5.0626 101.817 1.20914 107.553 1.20914C112.054 1.20914 115.584 3.44473 116.055 8.32774H112.289C111.613 5.70974 109.907 4.56253 107.553 4.56253C103.818 4.56253 102.023 7.47468 102.023 11.7694C102.023 16.0641 103.759 19.0056 107.553 19.0056C109.848 19.0056 111.613 17.8584 112.289 15.211H116.055C115.584 20.1234 112.054 22.359 107.553 22.359Z" fill="white"/>
<path d="M117.927 22.0649V1.47388H121.692V22.0649H117.927Z" fill="white"/>
<path d="M134.734 6.76871H138.499V22.0649H134.734V18.9174H134.587C134.293 20.2411 132.822 22.359 129.586 22.359C126.615 22.359 124.262 20.5353 124.262 16.3876V6.76871H128.027V15.5052C128.027 18.0055 129.116 19.241 131.175 19.241C133.204 19.241 134.734 18.0055 134.734 15.5052V6.76871Z" fill="white"/>
<path d="M149.554 6.47455C152.849 6.47455 156.29 8.82781 156.29 14.4168C156.29 20.0058 152.849 22.359 149.554 22.359C147.319 22.359 145.554 21.3001 144.818 19.8587V22.0649H141.053V1.47388H144.818V8.97488C145.554 7.53352 147.319 6.47455 149.554 6.47455ZM148.672 19.2115C150.79 19.2115 152.76 17.7113 152.76 14.4168C152.76 11.1222 150.79 9.62203 148.672 9.62203C146.613 9.62203 144.642 11.1222 144.642 14.4168C144.642 17.7113 146.613 19.2115 148.672 19.2115Z" fill="white"/>
<circle cx="159.334" cy="20.6608" r="1.75093" fill="white"/>
</svg>
